<?xml version="1.0" standalone="no"?>
<!DOCTYPE svg PUBLIC "-//W3C//DTD SVG 20010904//EN"
 "http://www.w3.org/TR/2001/REC-SVG-20010904/DTD/svg10.dtd">
<svg version="1.0" xmlns="http://www.w3.org/2000/svg"
 width="260.000000pt" height="260.000000pt" viewBox="0 0 260.000000 260.000000"
 preserveAspectRatio="xMidYMid meet">
<metadata>
Created by potrace 1.11, written by Peter Selinger 2001-2013
</metadata>
<g transform="translate(0.000000,260.000000) scale(0.100000,-0.100000)"
fill="#000000" stroke="none">
<path d="M1140 2593 c-23 -3 -153 -29 -190 -38 -8 -2 -53 -17 -99 -34 -133
-49 -266 -125 -385 -221 -44 -35 -146 -140 -146 -149 0 -6 -4 -11 -9 -11 -12
0 -102 -124 -141 -193 -71 -126 -130 -290 -154 -427 -19 -112 -15 -376 8 -480
64 -287 217 -546 432 -729 57 -49 160 -121 172 -121 6 0 12 -3 14 -7 3 -9 104
-60 179 -91 50 -22 161 -53 254 -73 105 -21 344 -19 469 5 208 40 452 155 586
276 19 17 52 46 73 65 20 18 37 38 37 44 0 7 5 9 10 6 6 -3 10 -3 10 2 0 4 15
24 33 44 54 62 67 79 67 89 0 6 5 10 10 10 6 0 10 4 10 9 0 6 14 30 31 55 73
110 144 300 173 466 18 104 18 316 -1 425 -16 99 -56 230 -94 312 -16 34 -29
66 -29 72 0 5 -3 11 -7 13 -5 2 -19 24 -33 51 -13 26 -28 47 -32 47 -5 0 -8 6
-8 13 0 6 -10 24 -23 39 -12 15 -33 42 -47 60 -62 81 -260 258 -288 258 -6 0
-12 4 -14 9 -6 15 -173 101 -259 132 -149 55 -247 72 -424 74 -88 1 -171 0
-185 -2z"/>
</g>
</svg>
